<svg width="190px" height="30px" version="1.1"
  xmlns="http://www.w3.org/2000/svg"
  xmlns:xlink="http://www.w3.org/1999/xlink">
  <defs>
    <polygon id="path-rog1drdoce-1" points="0 48.7660896 48.573913 48.7660896 48.573913 0.205669309 0 0.205669309"></polygon>
    <polygon id="path-rog1drdoce-3" points="0 0.119415279 24.4407199 0.119415279 24.4407199 13.7506338 0 13.7506338"></polygon>
    <polygon id="path-rog1drdoce-5" points="0.121051123 0.204987456 87.3581898 0.204987456 87.3581898 23.3909091 0.121051123 23.3909091"></polygon>
  </defs>
  <g id="ADM" stroke="none" stroke-width="1" fill="none" fill-rule="evenodd">
    <g id="Desktop-HD-&gt;-Home-2" transform="translate(0.000000, 0.000000)">
      <g id="Group-3" transform="translate(0.000000, 7.198200)">
        <mask id="mask-rog1drdoce-4" fill="white">
          <use xlink:href="#path-rog1drdoce-3"></use>
        </mask>
        <g id="Clip-2"></g>
        <path d="M24.4386015,6.71034455 C24.4956379,9.49104455 23.4034331,11.6973991 20.858644,12.91429 C17.6745363,14.4372355 14.7202768,13.8383718 12.1573269,11.4592627 C8.47322822,14.3746718 4.49515083,14.4253991 1.82124947,11.6272264 C-0.554132929,9.14074455 -0.614290744,4.92474455 1.68958331,2.37400818 C4.01644219,-0.201528182 8.06744674,-0.609319091 10.8696091,1.53334455 L8.84751199,3.74505364 C5.84898543,2.38809909 3.18615083,3.92231727 3.27269863,6.90254455 C3.3339915,9.01843545 4.89383824,10.6022536 6.94175781,10.6022536 C9.1650431,10.6022536 10.7966819,8.93276273 10.7966819,8.93276273 C10.7966819,8.93276273 10.5807381,7.83141727 10.6051417,7.06120818 C10.6590568,5.35789909 11.0784589,3.83720818 12.1590294,2.49716273 C15.0837775,-1.13011909 22.0842176,-0.639755455 23.8991675,4.19145364 C22.1633876,4.24556273 20.4829414,4.00319909 18.8637882,3.34656273 C18.0286728,3.00838091 17.1671675,2.89001727 16.327512,3.37502636 C14.3144953,4.21935364 13.4237624,5.97395364 13.9901539,7.97909 C14.5446273,9.94110818 16.1158246,10.9604445 18.1594877,10.6960991 C19.7505484,10.4906536 21.3912677,8.98659 21.22782,6.47249 C22.3089581,6.40767182 23.3690977,6.61903545 24.4386015,6.71034455" id="Fill-1" fill="#E30613" mask="url(#mask-rog1drdoce-4)"></path>
      </g>
      <path d="M146.974736,28.4575491 C146.614924,28.8481491 146.094786,29.0733218 145.543434,29.0733218 C145.031525,29.0733218 144.542317,28.8785855 144.182505,28.5246218 C143.685636,28.0365127 143.67769,27.5630582 143.67769,26.3534945 C143.67769,25.1436491 143.685636,24.6704764 144.182505,24.1815218 C144.542317,23.8281218 145.031525,23.6336673 145.543434,23.6336673 C146.499716,23.6336673 147.234095,24.2488764 147.402651,25.1960673 L146.990059,25.1960673 C146.828881,24.4593945 146.278664,23.9932673 145.543434,23.9932673 C145.153543,23.9932673 144.786637,24.1364309 144.511954,24.4072582 C144.12178,24.7902491 144.091133,25.2036764 144.091133,26.3534945 C144.091133,27.5030309 144.121496,27.9161764 144.511387,28.2994491 C144.786353,28.5697127 145.153543,28.7125945 145.54315,28.7125945 C145.9722,28.7125945 146.392453,28.5327945 146.675933,28.1943309 C146.913159,27.9091309 147.004815,27.5932127 147.004815,27.1346945 L147.004815,26.6536309 L145.543434,26.6536309 L145.543434,26.2926218 L147.417974,26.2926218 L147.417974,27.1648491 C147.417974,27.7211582 147.295672,28.1188036 146.974736,28.4575491" id="Fill-4" fill="#E30613"></path>
      <path d="M152.082191,29.0283436 L150.782555,26.5638436 L149.282866,26.5638436 L149.282866,29.0283436 L148.870558,29.0283436 L148.870558,23.6788709 L150.942598,23.6788709 C151.829925,23.6788709 152.503296,24.1816345 152.503296,25.1136073 C152.503296,25.9100255 152.013236,26.4285709 151.248778,26.5565164 L152.564021,29.0283436 L152.082191,29.0283436 Z M150.88925,24.0390345 L149.282866,24.0390345 L149.282866,26.2028345 L150.88925,26.2028345 C151.585605,26.2028345 152.089569,25.8573255 152.089569,25.1209345 C152.089569,24.3842618 151.585321,24.0390345 150.88925,24.0390345 L150.88925,24.0390345 Z" id="Fill-6" fill="#E30613"></path>
      <path d="M157.099324,29.0283436 L156.625156,27.7283164 L154.085758,27.7283164 L153.611306,29.0283436 L153.168068,29.0283436 L155.172288,23.6788709 L155.539478,23.6788709 L157.542846,29.0283436 L157.099324,29.0283436 Z M155.355315,24.2193982 L154.216006,27.3675891 L156.494908,27.3675891 L155.355315,24.2193982 Z" id="Fill-8" fill="#E30613"></path>
      <polygon id="Fill-10" fill="#E30613" points="162.053831 29.0283436 158.911153 24.3774982 158.911153 29.0283436 158.498277 29.0283436 158.498277 23.6788709 158.911153 23.6788709 162.053831 28.3144982 162.053831 23.6788709 162.467558 23.6788709 162.467558 29.0283436"></polygon>
      <path d="M167.337248,28.53984 C167.015744,28.8549127 166.542143,29.0279491 165.975468,29.0279491 L164.148316,29.0279491 L164.148316,23.6781945 L165.975468,23.6781945 C166.542427,23.6781945 167.015744,23.8512309 167.337248,24.1663036 C167.888032,24.7076764 167.865048,25.5567945 167.865048,26.2785309 C167.865048,26.9988582 167.888032,27.9987491 167.337248,28.53984 M167.046674,24.4523491 C166.733116,24.1369945 166.312295,24.0392036 165.876718,24.0392036 L164.560624,24.0392036 L164.560624,28.6677855 L165.876718,28.6677855 C166.312295,28.6677855 166.733116,28.5699945 167.046674,28.2535127 C167.481967,27.8181036 167.452172,26.8717582 167.452172,26.2782491 C167.452172,25.6841764 167.481967,24.8883218 167.046674,24.4523491" id="Fill-12" fill="#E30613"></path>
      <polygon id="Fill-14" fill="#020203" points="169.12629 29.0283436 169.12629 23.6788709 170.189835 23.6788709 170.189835 28.0972164 172.660278 28.0972164 172.660278 29.0283436"></polygon>
      <polygon id="Fill-16" fill="#020203" points="174.992216 26.8335155 174.992216 29.0283155 173.936617 29.0283155 173.936617 26.8335155 172.300154 23.6782791 173.454503 23.6782791 174.471511 25.8353155 175.473763 23.6782791 176.628112 23.6782791"></polygon>
      <path d="M180.504545,28.4878164 C180.122316,28.8631982 179.656093,29.0731527 179.036354,29.0731527 C178.416899,29.0731527 177.942163,28.8631982 177.560217,28.4878164 C177.009717,27.9464436 177.024152,27.2771255 177.024152,26.3536073 C177.024152,25.42868 177.009717,24.7604891 177.560217,24.2193982 C177.942163,23.8434527 178.416899,23.6329345 179.036354,23.6329345 C179.656093,23.6329345 180.122316,23.8434527 180.504545,24.2193982 C181.05533,24.7602073 181.047983,25.42868 181.047983,26.3533255 C181.048236,27.2771255 181.05533,27.9464436 180.504545,28.4878164 M179.717669,24.8503891 C179.56387,24.6773527 179.328063,24.5646255 179.036354,24.5646255 C178.745213,24.5646255 178.500609,24.6773527 178.347377,24.8503891 C178.140797,25.0758436 178.087166,25.3241255 178.087166,26.3533255 C178.087166,27.3819618 178.140513,27.6305255 178.347377,27.85598 C178.500609,28.0284527 178.745213,28.1414618 179.036354,28.1414618 C179.328063,28.1414618 179.56387,28.0284527 179.717669,27.85598 C179.923114,27.6305255 179.984123,27.3819618 179.984123,26.3533255 C179.984123,25.3241255 179.923398,25.0758436 179.717669,24.8503891" id="Fill-18" fill="#020203"></path>
      <polygon id="Fill-20" fill="#020203" points="185.352329 29.0283436 183.19516 25.7451618 183.19516 29.0283436 182.13275 29.0283436 182.13275 23.6788709 183.081087 23.6788709 185.237404 26.9541618 185.237404 23.6788709 186.300665 23.6788709 186.300665 29.0283436"></polygon>
      <g id="Group-24" transform="translate(99.600910, 7.480018)">
        <mask id="mask-rog1drdoce-6" fill="white">
          <use xlink:href="#path-rog1drdoce-5"></use>
        </mask>
        <g id="Clip-23"></g>
        <path d="M37.6978947,15.4697045 C35.5935062,16.4397227 33.793312,17.3426682 32.4437338,18.90845 C32.0544106,19.3599227 31.5734319,19.9317318 32.1003803,20.52045 C32.6020737,21.0804227 33.3361693,21.2500773 34.029403,20.8343955 C35.9717627,19.6702045 37.1675411,17.9764773 37.6978947,15.4697045 M37.4464804,9.25730455 C36.3920161,9.38496818 35.6391921,9.98270455 34.8106033,10.3997955 C34.1366656,10.7391045 33.4933742,11.1480227 32.7973029,11.4318136 C31.3509615,12.0210955 30.3521147,11.7215227 29.139878,10.3882409 C28.3371117,10.7159955 27.5153332,11.0643227 26.6841906,11.3889773 C23.748092,12.5362591 21.6808765,11.5718773 20.7106898,8.60405 C20.4615457,7.84229545 20.3642149,7.05095 20.2498583,6.25988636 C20.0852756,5.12528636 19.651969,4.92125 18.60318,5.41330455 C18.518051,5.45332273 18.4266792,5.49136818 18.3577247,5.55224091 C16.2462422,7.41477727 13.8030404,8.93631364 12.2397885,11.3616409 C11.8402498,11.9813591 11.4724926,12.5576773 10.5973666,12.4274773 C9.73245615,12.2989682 9.42968073,11.7178591 9.45181426,10.9620227 C8.84853354,10.7839136 8.44672473,11.0846136 8.0142695,11.22665 C6.89368832,11.5941409 5.78616024,11.9929136 4.62187951,12.2220318 C1.87760486,12.7619955 0.329392413,11.6104864 0.151756601,8.81597727 C0.0802482549,7.69180455 0.127352959,6.57073182 0.359755083,5.45219545 C0.500501669,4.77442273 0.751915933,4.12060455 0.707081335,3.38646818 C0.669057056,2.76308636 1.10889014,2.23439545 1.55383096,1.81420455 C2.1114258,1.28805 2.78167466,1.36667727 3.39545463,1.72233182 C4.03363824,2.09264091 3.89856692,2.62217727 3.64317997,3.19201364 C2.92327253,4.79950455 2.49791138,6.46871364 2.68264127,8.25008636 C2.82934689,9.66988636 3.37587496,10.1255864 4.74645159,9.73047727 C6.14824219,9.32606818 7.50009044,8.75256818 8.88145008,8.27545 C9.30141973,8.13059545 9.52020121,7.89020455 9.45862458,7.45056818 C9.3201481,6.46223182 9.75685979,5.44007727 9.08434082,4.46245 C8.70466555,3.91065 9.21856085,3.29825909 9.57894021,2.81916818 C9.98699181,2.27695 10.5970829,2.38488636 11.1444622,2.54242273 C11.7559721,2.71827727 11.829183,3.24696818 11.8274804,3.79172273 C11.8240753,5.05314091 11.8263454,6.31455909 11.8263454,7.70335909 C12.7556701,7.40885909 13.1869903,6.76997727 13.74118,6.31343182 C14.7593226,5.47502273 15.724969,4.57433182 16.7380039,3.72915909 C17.434359,3.14833182 18.2504622,2.75491364 19.1372225,2.56496818 C21.1740753,2.12899545 22.2878461,2.92625909 22.6136064,4.97056818 C22.775919,5.98821364 22.8899918,7.01966818 23.2418583,7.99842273 C23.6805563,9.21982273 24.3079569,9.59295 25.5292741,9.19784091 C26.6935548,8.82105 27.8098795,8.30025 28.9540131,7.85948636 C29.4208036,7.67940455 29.4883393,7.24427727 29.6784607,6.87622273 C31.1880813,3.95405 33.48401,1.90156818 36.5699357,0.709477273 C37.6970434,0.273786364 38.8567839,0.156268182 40.0483059,0.221931818 C40.4274137,0.242504545 40.7931845,0.29605 41.1356868,0.491913636 C41.8135973,0.879413636 42.075227,1.45065909 41.7611011,2.14985 C41.4844319,2.76646818 40.9350662,3.11395 40.2514804,2.79887727 C39.3346413,2.37643182 38.485054,2.61907727 37.6499387,2.95190455 C35.6919721,3.73225909 33.9153302,4.77498636 32.7558734,6.61159545 C32.5325517,6.96499545 32.3495244,7.35024091 32.1994137,7.74027727 C32.0853408,8.03646818 31.9377839,8.38282273 32.2450995,8.65844091 C32.5529827,8.93462273 32.8682437,8.75003182 33.1539933,8.59672273 C34.0259979,8.12862273 34.8738825,7.61430455 35.759224,7.17438636 C38.8136519,5.65764091 39.7966079,6.15420455 40.3292316,9.47881364 C40.4469933,10.2140773 40.4765047,10.9634318 40.5553909,11.80015 C43.8161147,10.8408409 47.070312,10.0810591 50.3687763,9.49966818 C56.2387035,8.46567727 62.1577217,7.84257727 68.0940495,7.37616818 C73.7014956,6.93568636 79.3185897,6.63188636 84.941359,6.45377727 C85.2248385,6.44475909 85.5091693,6.44983182 85.7917976,6.43038636 C86.649614,6.37176818 87.3624273,6.58059545 87.3581898,7.58245909 C87.3541982,8.58460455 86.6013742,8.73143182 85.7736367,8.76496818 C78.31123,9.06595 70.8505259,9.40920455 63.4176307,10.1548955 C56.2690662,10.8718409 49.1517156,11.7801409 42.2185275,13.7711864 C41.080353,14.0978136 40.4418856,14.5380136 40.2279281,15.8309955 C39.766529,18.6162045 38.3434561,20.9011864 35.9882209,22.5732136 C34.8670722,23.3690682 33.6395123,23.5466136 32.3469706,23.26705 C29.7618871,22.7079227 28.7372179,20.3150045 30.1205639,18.07145 C31.0884804,16.5014409 32.5719948,15.4823864 34.1534076,14.6101591 C35.1840358,14.0420136 36.2498507,13.5333318 37.3202058,13.0415591 C37.7427293,12.8473864 38.0701921,12.6822409 37.9836443,12.1346682 C37.8383575,11.2153773 37.9322832,10.2549409 37.4464804,9.25730455" id="Fill-22" fill="#020203" mask="url(#mask-rog1drdoce-6)"></path>
      </g>
      <path d="M16.3273985,10.5731136 C17.167054,10.0883864 18.0285593,10.2064682 18.8636747,10.5449318 C20.4828279,11.2012864 22.1635578,11.44365 23.899054,11.3895409 C25.3190055,11.5155136 26.7247687,11.4368864 28.1308158,11.1880409 C28.7993621,11.0696773 29.3955487,10.89495 29.9239159,10.4420682 C30.5947323,9.86744091 31.3980662,9.61380455 32.2944744,9.72568636 C32.7984379,9.78853182 33.21557,10.0046864 33.3602892,10.51675 C33.5109675,11.0491045 33.4306625,11.5668045 32.9360631,11.8976591 C32.5078643,12.1839864 32.0458977,12.4266318 31.5796747,12.64955 C30.4383788,13.19515 29.4474774,15.1890136 29.749969,16.41915 C29.9003636,17.0315409 30.2831602,17.3671864 30.9630571,17.3812773 C31.7760388,17.3979045 32.4391936,17.0464773 33.0353803,16.5842955 C34.1525563,15.71855 35.2277354,14.7995409 36.3222103,13.90505 C37.5988613,12.8620409 38.4651906,13.0457864 38.9158067,14.61495 C39.8286731,17.7952682 41.4217202,18.5843591 44.8484455,17.3559136 C45.6523469,17.0678955 46.4321284,16.73535 47.1097551,16.2103227 C48.3517869,15.2484773 48.6003636,14.07245 47.7530464,12.75495 C47.2468127,11.9678318 46.611183,11.2624409 46.0289008,10.5243591 C45.3211951,9.62733182 45.2706853,8.93659545 45.8833302,8.42227727 C46.5254865,7.88344091 47.8401618,8.02463182 48.2428219,8.86219545 C48.8165912,10.0554136 49.7269038,11.0243045 50.2720131,12.2251318 C51.1757991,14.2158955 50.8838067,16.1703045 49.2419524,17.6109591 C47.1440904,19.45095 44.640447,20.36235 41.8351633,20.2961227 C39.8834395,20.2499045 38.4274501,19.3246955 37.5205426,17.5734773 C37.3769584,17.2961682 37.3491496,16.9210682 36.8903044,16.7285864 C35.9442376,17.1146773 35.242491,17.9657682 34.3628249,18.5547682 C33.3685184,19.2201409 32.3753469,19.8204136 31.1367202,19.8652227 C28.686708,19.9539955 27.2128416,18.5048864 27.296268,16.0753318 C27.3220904,15.3254136 27.3987065,14.5800045 27.7111299,13.7864045 C26.5553621,13.6345045 25.4974926,13.8095136 24.438488,13.9084318 C23.369268,13.8174045 22.3091284,13.6057591 21.2279903,13.6708591 C20.3735791,13.4273682 19.5063985,13.2219227 18.6684455,12.9319318 C17.5138127,12.5323136 16.5541253,11.9004773 16.3273985,10.5731136" id="Fill-25" fill="#020203"></path>
      <path d="M85.864214,14.6584909 C85.582437,15.8570636 85.6596206,16.8873909 85.6025842,17.9056 C85.5628574,18.6138091 85.240786,19.0816273 84.4851244,19.0864182 C83.6815068,19.0917727 83.3058042,18.6529818 83.2743065,17.8526182 C83.0751047,12.8286455 83.5980804,7.93036364 85.7688695,3.3077 C86.2299848,2.325 86.7804856,1.40232727 87.48961,0.575190909 C88.033868,-0.0597454545 88.6992929,-0.191072727 89.3647178,0.292527273 C90.0278725,0.774718182 89.9387709,1.4353 89.498654,2.03444545 C88.0616768,3.99026364 87.3043126,6.25833636 86.4632382,8.48808182 C86.403648,8.64646364 86.4555766,8.84655455 86.4555766,9.02015455 C86.8457511,9.37017273 87.1658361,9.06580909 87.5040819,8.94913636 C90.0202109,8.08113636 92.5877011,7.51806364 95.2732367,7.6942 C95.7377572,7.72463636 96.2298027,7.71195455 96.5896146,8.09973636 C96.9505615,8.48892727 96.9936935,8.94519091 96.8083961,9.40962727 C96.5862094,9.96819091 96.1344583,10.1299545 95.5479196,10.0761273 C93.1898467,9.86053636 90.9549272,10.4498182 88.7583156,11.1884636 C88.1672367,11.3877091 87.3080015,11.4615455 87.2010228,12.2173818 C87.0926252,12.9828 87.9109985,13.2539091 88.4257451,13.6140727 C91.132563,15.5076091 93.9137269,17.2754545 97.1599788,18.1397909 C97.9295448,18.3446727 98.3305023,18.7575364 98.1386783,19.5491636 C97.9547997,20.3066909 97.4147982,20.6119 96.6423945,20.4873364 C95.7976313,20.3517818 95.0039454,20.0493909 94.2218938,19.7176909 C91.2596889,18.4605 88.5122929,16.8454 85.864214,14.6584909" id="Fill-27" fill="#020203"></path>
      <path d="M57.8534017,11.7591455 C56.1618888,12.7452273 55.3213819,14.1737636 55.0461316,15.9810636 C54.7836505,17.7060727 55.5168948,18.5921091 57.2504047,18.6045091 C59.7109161,18.6219818 61.5661604,17.4679364 63.0366217,15.6011727 C63.5377476,14.9648273 63.4568751,14.3118545 63.0672681,13.6405636 C62.6390693,12.9027636 61.9569024,12.9137545 61.2270633,12.8985364 C60.0048948,12.8731727 58.6425473,13.2257273 57.8534017,11.7591455 M65.4531498,12.9802636 C66.2791847,14.9462273 65.6793091,16.4204182 64.363215,17.8117545 C62.1362408,20.1666273 59.425734,21.1738455 56.2243167,20.9748818 C53.9405898,20.8328455 52.4874381,19.4716636 52.4621832,17.2095091 C52.4261452,13.9412636 53.713863,11.2859727 56.6059783,9.54602727 C57.5301953,8.99028182 58.4708706,9.13316364 59.5517249,9.24363636 C61.5647416,9.44936364 63.2497279,10.8133636 65.3580891,10.5732545 C66.6486445,10.4264273 67.2039692,10.8894545 67.2419935,11.7143364 C67.2780314,12.4963818 66.9937006,12.7074636 65.4531498,12.9802636" id="Fill-29" fill="#020203"></path>
      <path d="M71.1180863,12.8597018 C73.1015917,11.5055655 75.0984338,10.4803109 77.2913564,9.87975636 C78.3446857,9.59117455 79.4056766,9.40771091 80.4805719,9.84988364 C81.2665962,10.1731291 81.5861137,10.7150655 81.3290241,11.5190927 C81.0568951,12.3687745 80.4368724,12.5776018 79.6570909,12.2191291 C79.0452973,11.9378745 78.4766357,12.0398927 77.8705173,12.2030655 C76.0280423,12.6999109 74.3649058,13.5665018 72.7712912,14.5827382 C71.810185,15.1954109 71.1771091,16.0146564 71.0479968,17.1856109 C70.9588951,17.9927382 70.6555522,18.7099655 69.6598269,18.5978018 C68.6853838,18.4881745 68.5531501,17.7182473 68.5486099,16.9187291 C68.5381106,14.9555836 68.5094505,12.9918745 68.5321516,11.0287291 C68.5392457,10.4095745 68.9121106,9.86989273 69.2350332,9.36910182 C69.5500105,8.88127455 70.0937009,8.84379273 70.629446,9.06840182 C71.1705825,9.29498364 71.4702366,9.67346545 71.3345977,10.2796564 C71.1535568,11.0884745 71.0105401,11.8958836 71.1180863,12.8597018" id="Fill-31" fill="#020203"></path>
      <path d="M104.843664,1.77260818 C105.970488,1.78979909 106.730406,2.53520818 106.718204,3.61090818 C106.705719,4.74099909 105.866914,5.53967182 104.720511,5.51402636 C103.633981,5.48950818 102.869523,4.72268091 102.857321,3.64472636 C102.844552,2.51379 103.650439,1.75429 104.843664,1.77260818" id="Fill-33" fill="#020203"></path>
    </g>
  </g>
</svg>
