<?xml version="1.0" encoding="utf-8"?>
<!-- Generator: Adobe Illustrator 27.2.0, SVG Export Plug-In . SVG Version: 6.00 Build 0)  -->
<svg version="1.1" id="Calque_1" xmlns="http://www.w3.org/2000/svg" xmlns:xlink="http://www.w3.org/1999/xlink" x="0px" y="0px"
	 viewBox="0 0 48.7 48.7" style="enable-background:new 0 0 48.7 48.7;" xml:space="preserve">
<style type="text/css">
	.st0{fill-rule:evenodd;clip-rule:evenodd;fill:#898383;}
	.st1{fill-rule:evenodd;clip-rule:evenodd;fill:#80CCD9;}
	.st2{fill-rule:evenodd;clip-rule:evenodd;fill:#F18641;}
	.st3{fill-rule:evenodd;clip-rule:evenodd;fill:#CAD400;}
</style>
<g>
	<path class="st0" d="M12.9,12.8c6.3,0,11.5,5.2,11.5,11.6c0,6.4-5.2,11.6-11.5,11.6S1.4,30.7,1.4,24.4C1.4,18,6.5,12.8,12.9,12.8z"
		/>
	<g>
		<path class="st1" d="M12.8,12.9c0-6.3,5.2-11.5,11.6-11.5s11.6,5.2,11.6,11.5s-5.2,11.5-11.6,11.5S12.8,19.2,12.8,12.9z"/>
	</g>
	<g>
		<path class="st2" d="M35.9,12.8c6.3,0,11.5,5.2,11.5,11.6c0,6.4-5.2,11.6-11.5,11.6s-11.5-5.2-11.5-11.6
			C24.4,18,29.5,12.8,35.9,12.8z"/>
		<path class="st3" d="M24.4,24.4L24.4,24.4c0,6.4-5.2,11.6-11.5,11.6c0,0,0,0,0,0c0,6.3,5.2,11.4,11.5,11.4
			c6.4,0,11.6-5.2,11.6-11.5S30.7,24.4,24.4,24.4z"/>
	</g>
</g>
</svg>
