<?xml version="1.0" encoding="utf-8"?>
<!-- Generator: Adobe Illustrator 27.3.1, SVG Export Plug-In . SVG Version: 6.00 Build 0)  -->
<svg version="1.1" id="Calque_1" xmlns="http://www.w3.org/2000/svg" xmlns:xlink="http://www.w3.org/1999/xlink" x="0px" y="0px"
	 viewBox="0 0 482.7 482.7" style="enable-background:new 0 0 482.7 482.7;" xml:space="preserve">
<style type="text/css">
	.st0{fill:none;}
	.st1{fill-rule:evenodd;clip-rule:evenodd;fill:#80CCD9;}
	.st2{fill-rule:evenodd;clip-rule:evenodd;fill:#F18641;}
	.st3{fill-rule:evenodd;clip-rule:evenodd;fill:#CAD400;}
	.st4{fill-rule:evenodd;clip-rule:evenodd;fill:#898383;}
	.st5{fill-rule:evenodd;clip-rule:evenodd;fill:#494849;}
	.st6{fill:#FFFFFF;}
</style>
<circle class="st0" cx="241.4" cy="241.4" r="241.4"/>
<g>
	<path class="st1" d="M246.2,426.7c0-3.6,3-6.6,6.6-6.6c3.6,0,6.6,3,6.6,6.6s-3,6.6-6.6,6.6S246.2,430.3,246.2,426.7L246.2,426.7z"
		/>
	<path class="st2" d="M435.1,218.2c0-3.6,3-6.6,6.6-6.6s6.6,2.9,6.6,6.6s-3,6.6-6.6,6.6S435.1,221.9,435.1,218.2z"/>
	<path class="st3" d="M193.3,90.4c0-3.6,3-6.6,6.6-6.6s6.6,3,6.6,6.6s-3,6.6-6.6,6.6S193.3,94.1,193.3,90.4z"/>
	<path class="st2" d="M61,350.3c0-2.5,2.1-4.6,4.6-4.6s4.7,2.1,4.7,4.6s-2.1,4.6-4.7,4.6S61,352.9,61,350.3z"/>
	<path class="st2" d="M75.9,123.2c0-2.6,2.1-4.6,4.7-4.6s4.7,2.1,4.7,4.6s-2.1,4.6-4.7,4.6S75.9,125.7,75.9,123.2z"/>
	<path class="st2" d="M288.2,398.3c0-2.6,2.1-4.6,4.6-4.6s4.6,2.1,4.6,4.6s-2.1,4.6-4.6,4.6S288.2,400.9,288.2,398.3z"/>
	<path class="st2" d="M268.1,47.4c0-2.6,2.1-4.6,4.6-4.6s4.6,2.1,4.6,4.6s-2.1,4.6-4.6,4.6S268.1,50,268.1,47.4z"/>
	<path class="st1" d="M420.5,255.2c0-2.6,2.1-4.6,4.6-4.6s4.6,2.1,4.6,4.6c0,2.6-2.1,4.6-4.6,4.6S420.5,257.8,420.5,255.2
		L420.5,255.2z"/>
	<path class="st3" d="M83.9,384.4c0-2.6,2.1-4.6,4.7-4.6s4.7,2.1,4.7,4.6s-2.1,4.6-4.7,4.6S83.9,387,83.9,384.4z"/>
	<path class="st1" d="M82,166.1c0-3.7,3-6.6,6.6-6.6s6.6,2.9,6.6,6.6s-3,6.6-6.6,6.6S82,169.8,82,166.1z"/>
	<path class="st1" d="M184,52.1c0-2.6,2.1-4.6,4.6-4.6s4.6,2.1,4.6,4.6s-2.1,4.6-4.6,4.6S184,54.6,184,52.1z"/>
	<path class="st3" d="M186.7,145c0-3.6,3-6.6,6.6-6.6s6.6,3,6.6,6.6s-3,6.6-6.6,6.6S186.7,148.6,186.7,145z"/>
	<path class="st3" d="M34.3,259.2c0-3.6,3-6.6,6.6-6.6s6.6,2.9,6.6,6.6c0,3.7-3,6.6-6.6,6.6S34.3,262.8,34.3,259.2z"/>
	<path class="st3" d="M430.5,300.6c0-3.6,3-6.6,6.6-6.6s6.6,3,6.6,6.6s-3,6.6-6.6,6.6S430.5,304.2,430.5,300.6z"/>
	<path class="st4" d="M415.8,147.4c0-2.6,2.1-4.6,4.6-4.6s4.6,2.1,4.6,4.6s-2.1,4.6-4.6,4.6S415.8,149.9,415.8,147.4z"/>
	<path class="st5" d="M235.6,116.6c0-3.6,3-6.6,6.6-6.6s6.6,2.9,6.6,6.6s-3,6.6-6.6,6.6S235.6,120.2,235.6,116.6z"/>
	<path class="st4" d="M42.9,190.3c0-2.6,2.1-4.6,4.7-4.6s4.7,2.1,4.7,4.6s-2.1,4.6-4.7,4.6S42.9,192.9,42.9,190.3z"/>
	<path class="st2" d="M193.3,433.3c0-3.6,3-6.6,6.6-6.6s6.6,3,6.6,6.6s-3,6.6-6.6,6.6S193.3,437,193.3,433.3z"/>
	<path class="st5" d="M371,388.8c0-3.6,3-6.6,6.6-6.6s6.6,3,6.6,6.6s-3,6.6-6.6,6.6S371,392.5,371,388.8z"/>
	<path class="st3" d="M320.4,135.9c-7.7,0-13.9-6.2-13.9-13.9c0-7.7,6.2-13.9,13.9-13.9c7.7,0,14,6.2,14,13.9
		C334.4,129.7,328.1,135.9,320.4,135.9z"/>
	<path class="st2" d="M138.7,159.1c-7.7,0-13.9-6.2-13.9-13.9c0-7.7,6.2-13.9,13.9-13.9c7.7,0,13.9,6.2,13.9,13.9
		C152.7,152.8,146.4,159.1,138.7,159.1z"/>
	<path class="st2" d="M112.6,365.6c-3.7,0-6.6-3-6.6-6.6c0-3.6,3-6.6,6.6-6.6c3.7,0,6.6,3,6.6,6.6
		C119.3,362.6,116.3,365.6,112.6,365.6z"/>
	<path class="st2" d="M362.9,361c-3.7,0-6.6-3-6.6-6.6c0-3.6,3-6.6,6.6-6.6s6.6,3,6.6,6.6S366.5,361,362.9,361z"/>
	<path class="st2" d="M358,159.1c-5.1,0-9.3-4.1-9.3-9.3s4.2-9.2,9.3-9.2c5.1,0,9.3,4.1,9.3,9.2C367.2,154.9,363.1,159.1,358,159.1z
		"/>
	<path class="st1" d="M261.4,94.9c-3.7,0-6.6-2.9-6.6-6.6s3-6.6,6.6-6.6s6.6,3,6.6,6.6S265.1,94.9,261.4,94.9z"/>
	<path class="st1" d="M146.1,431.3c-2.6,0-4.6-2.1-4.6-4.6c0-2.6,2.1-4.6,4.6-4.6c2.6,0,4.6,2.1,4.6,4.6
		C150.8,429.3,148.7,431.3,146.1,431.3z"/>
	<path class="st2" d="M307.7,373.1c-5.1,0-9.3-4.2-9.3-9.3c0-5.1,4.2-9.3,9.3-9.3c5.1,0,9.3,4.1,9.3,9.3S312.8,373.1,307.7,373.1z"
		/>
	<path class="st1" d="M80.6,294.3c-3.7,0-6.6-3-6.6-6.6s3-6.6,6.6-6.6c3.7,0,6.6,3,6.6,6.6C87.2,291.3,84.2,294.3,80.6,294.3z"/>
	<path class="st5" d="M251.5,366.3c-5.1,0-9.3-4.1-9.3-9.3c0-5.1,4.2-9.3,9.3-9.3c5.1,0,9.3,4.2,9.3,9.3
		C260.8,362.2,256.7,366.3,251.5,366.3z"/>
	<path class="st3" d="M334.4,431.3c-2.6,0-4.6-2.1-4.6-4.6c0-2.6,2.1-4.6,4.6-4.6s4.6,2.1,4.6,4.6
		C339,429.3,336.9,431.3,334.4,431.3z"/>
	<path class="st3" d="M375.6,100.2c-2.6,0-4.6-2.1-4.6-4.6s2.1-4.6,4.6-4.6c2.6,0,4.6,2.1,4.6,4.6
		C380.3,98.1,378.2,100.2,375.6,100.2z"/>
	<path class="st3" d="M303.1,80.9c-2.6,0-4.6-2.1-4.6-4.6c0-2.6,2.1-4.6,4.6-4.6s4.6,2.1,4.6,4.6C307.7,78.8,305.6,80.9,303.1,80.9z
		"/>
	<path class="st5" d="M150.8,109c-3.7,0-6.6-2.9-6.6-6.6s3-6.6,6.6-6.6s6.6,2.9,6.6,6.6C157.4,106.1,154.4,109,150.8,109z"/>
	<path class="st4" d="M265.8,159.1c-5.1,0-9.3-4.1-9.3-9.3s4.2-9.3,9.3-9.3c5.1,0,9.3,4.1,9.3,9.3S271,159.1,265.8,159.1z"/>
	<path class="st4" d="M172.1,404.2c-3.7,0-6.6-3-6.6-6.6s3-6.6,6.6-6.6s6.6,3,6.6,6.6S175.8,404.2,172.1,404.2z"/>
	<path class="st1" d="M215.3,398.3c-7.7,0-13.9-6.2-13.9-13.9c0-7.7,6.2-13.9,13.9-13.9c7.7,0,13.9,6.2,13.9,13.9
		C229.2,392.1,223,398.3,215.3,398.3z"/>
	<path class="st1" d="M420.5,354.6c-2.6,0-4.6-2.1-4.6-4.6c0-2.6,2.1-4.6,4.6-4.6s4.6,2.1,4.6,4.6
		C425.1,352.5,423,354.6,420.5,354.6z"/>
	<path class="st5" d="M387,133.5c-3.7,0-6.6-3-6.6-6.6c0-3.7,3-6.6,6.6-6.6s6.6,3,6.6,6.6C393.6,130.6,390.7,133.5,387,133.5z"/>
	<path class="st3" d="M153.5,359.6c0-5.1,4.2-9.3,9.3-9.3s9.3,4.1,9.3,9.3s-4.2,9.3-9.3,9.3S153.5,364.7,153.5,359.6z"/>
	<g>
		<path class="st6" d="M99.9,316.8L99.9,316.8c0-4.2,3.1-7.6,7.4-7.6c2.7,0,4.3,0.9,5.6,2.3l-1.6,1.9c-1.2-1.1-2.4-1.8-4-1.8
			c-2.8,0-4.8,2.3-4.8,5.2v0c0,2.9,2,5.2,4.8,5.2c1.8,0,2.9-0.7,4.1-1.9l1.6,1.7c-1.5,1.6-3.1,2.6-5.8,2.6
			C103.1,324.3,99.9,321,99.9,316.8L99.9,316.8z"/>
		<path class="st6" d="M115.4,316.8L115.4,316.8c0-4.2,3.1-7.6,7.5-7.6s7.5,3.4,7.5,7.5v0c0,4.1-3.1,7.6-7.5,7.6
			S115.4,320.9,115.4,316.8L115.4,316.8z M127.8,316.8L127.8,316.8c0-2.9-2-5.2-4.9-5.2s-4.8,2.3-4.8,5.2v0c0,2.9,2,5.2,4.9,5.2
			S127.8,319.6,127.8,316.8z"/>
		<path class="st6" d="M132.4,309.4h2.7l3.4,10.9l3.5-10.9h2.1l3.5,10.9l3.4-10.9h2.6l-5,14.8h-2.2l-3.5-10.5l-3.5,10.5h-2.2
			L132.4,309.4L132.4,309.4z"/>
		<path class="st6" d="M155.8,316.8L155.8,316.8c0-4.2,3.1-7.6,7.5-7.6s7.5,3.4,7.5,7.5v0c0,4.1-3.1,7.6-7.5,7.6
			S155.8,320.9,155.8,316.8z M168.1,316.8L168.1,316.8c0-2.9-2-5.2-4.9-5.2s-4.8,2.3-4.8,5.2v0c0,2.9,2,5.2,4.9,5.2
			S168.2,319.6,168.1,316.8L168.1,316.8z"/>
		<path class="st6" d="M174.6,309.4h6.4c1.8,0,3.2,0.5,4.1,1.5c0.8,0.8,1.2,1.9,1.2,3.2v0c0,2.4-1.4,3.9-3.4,4.4l3.9,5.5h-3
			l-3.5-5.1h-3.2v5.1h-2.5L174.6,309.4L174.6,309.4z M180.8,316.7c1.8,0,3-1,3-2.5v0c0-1.6-1.1-2.4-3-2.4h-3.7v4.9H180.8
			L180.8,316.7z"/>
		<path class="st6" d="M190.2,309.4h2.5v7.4l6.8-7.4h3.1l-6,6.3l6.2,8.4h-3.1l-4.9-6.6l-2.2,2.3v4.2h-2.5V309.4z"/>
		<path class="st6" d="M206,309.4h2.5v14.6H206V309.4z"/>
		<path class="st6" d="M213.1,309.4h2.3l7.7,10.1v-10.1h2.5v14.6h-2.1l-7.9-10.4v10.4h-2.5L213.1,309.4L213.1,309.4z"/>
		<path class="st6" d="M229.4,316.8L229.4,316.8c0-4.1,3.1-7.6,7.4-7.6c2.5,0,4.1,0.7,5.5,2l-1.6,2c-1.1-1-2.2-1.6-4-1.6
			c-2.6,0-4.7,2.4-4.7,5.2v0c0,3,1.9,5.2,4.9,5.2c1.4,0,2.6-0.4,3.5-1.1v-2.7h-3.7v-2.2h6.1v6.1c-1.4,1.2-3.4,2.3-6,2.3
			C232.4,324.3,229.4,321,229.4,316.8L229.4,316.8z"/>
		<path class="st6" d="M258.9,309.3h2.3l6.3,14.8h-2.7l-1.5-3.5h-6.8l-1.5,3.5h-2.6L258.9,309.3z M262.5,318.2l-2.5-5.9l-2.5,5.9
			H262.5z"/>
		<path class="st6" d="M269.6,321.9l1.5-1.8c1.4,1.2,2.8,1.9,4.5,1.9c1.6,0,2.5-0.7,2.5-1.8v0c0-1-0.6-1.6-3.2-2.2
			c-3.1-0.8-4.8-1.7-4.8-4.4v0c0-2.5,2-4.2,4.9-4.2c2.1,0,3.8,0.6,5.2,1.8l-1.4,2c-1.3-1-2.6-1.5-3.9-1.5c-1.5,0-2.3,0.8-2.3,1.7v0
			c0,1.1,0.7,1.6,3.4,2.3c3,0.8,4.6,1.9,4.6,4.3v0c0,2.7-2.1,4.4-5.1,4.4C273.4,324.3,271.3,323.5,269.6,321.9z"/>
		<path class="st6" d="M283.3,321.9l1.5-1.8c1.4,1.2,2.8,1.9,4.5,1.9c1.6,0,2.5-0.7,2.5-1.8v0c0-1-0.6-1.6-3.2-2.2
			c-3.1-0.8-4.8-1.7-4.8-4.4v0c0-2.5,2-4.2,4.9-4.2c2.1,0,3.8,0.6,5.2,1.8l-1.4,2c-1.3-1-2.6-1.5-3.9-1.5c-1.5,0-2.3,0.8-2.3,1.7v0
			c0,1.1,0.7,1.6,3.4,2.3c3,0.8,4.6,1.9,4.6,4.3v0c0,2.7-2.1,4.4-5.1,4.4C287.1,324.3,285,323.5,283.3,321.9z"/>
		<path class="st6" d="M297.5,316.8L297.5,316.8c0-4.2,3.1-7.6,7.5-7.6s7.5,3.4,7.5,7.5v0c0,4.1-3.1,7.6-7.5,7.6
			S297.5,320.9,297.5,316.8z M309.9,316.8L309.9,316.8c0-2.9-2-5.2-4.9-5.2s-4.8,2.3-4.8,5.2v0c0,2.9,2,5.2,4.9,5.2
			S309.9,319.6,309.9,316.8L309.9,316.8z"/>
		<path class="st6" d="M315.7,316.8L315.7,316.8c0-4.2,3.1-7.6,7.4-7.6c2.6,0,4.3,0.9,5.6,2.3l-1.6,1.9c-1.1-1.1-2.4-1.8-4-1.8
			c-2.8,0-4.8,2.3-4.8,5.2v0c0,2.9,2,5.2,4.8,5.2c1.8,0,2.9-0.7,4.1-1.9l1.6,1.7c-1.5,1.6-3.1,2.6-5.8,2.6
			C318.8,324.3,315.7,321,315.7,316.8L315.7,316.8z"/>
		<path class="st6" d="M332.4,309.4h2.5v14.6h-2.5V309.4z"/>
		<path class="st6" d="M344.6,309.3h2.3l6.3,14.8h-2.7l-1.5-3.5h-6.8l-1.5,3.5h-2.6L344.6,309.3L344.6,309.3z M348.2,318.2l-2.5-5.9
			l-2.5,5.9H348.2z"/>
		<path class="st6" d="M358.1,311.8h-4.6v-2.4h11.7v2.4h-4.6v12.3h-2.5L358.1,311.8L358.1,311.8z"/>
		<path class="st6" d="M368.8,309.4h2.5v14.6h-2.5V309.4z"/>
		<path class="st6" d="M375.9,309.4h10.7v2.3h-8.2v4h7.2v2.3h-7.2v6h-2.5V309.4z"/>
	</g>
	<g>
		<g>
			<g>
				<path class="st6" d="M101.4,197.1h8.8V229h19.9v8h-28.7V197.1z"/>
				<path class="st6" d="M131.4,211.8c3.9-0.4,5.9-2.4,5.6-5.6h-3.5v-9.1h9.2v7.7c0,7.5-3.8,10.5-10.6,10.6L131.4,211.8L131.4,211.8
					z"/>
				<path class="st6" d="M158.7,196.8h8.1l17.1,40.1h-9.2l-3.6-8.9h-16.9l-3.6,8.9h-9L158.7,196.8L158.7,196.8z M168,220.3
					l-5.3-12.9l-5.3,12.9H168z"/>
				<path class="st6" d="M194.3,205.2h-12.2v-8.1h33.1v8.1h-12.2v31.8h-8.8V205.2z"/>
				<path class="st6" d="M222,197.1h30.1v7.8h-21.4v8.1h18.8v7.8h-18.8v8.4h21.7v7.8H222V197.1L222,197.1z"/>
				<path class="st6" d="M260.2,197.1h8.8V229h19.9v8h-28.7L260.2,197.1L260.2,197.1z"/>
				<path class="st6" d="M295.9,197.1h8.8v39.8h-8.8V197.1z"/>
				<path class="st6" d="M314.7,197.1h30.1v7.8h-21.4v8.1h18.8v7.8h-18.8v8.4h21.7v7.8h-30.4L314.7,197.1L314.7,197.1z"/>
				<path class="st6" d="M353,197.1h18.3c5.1,0,9,1.4,11.6,4c2.2,2.2,3.4,5.4,3.4,9.1v0.1c0,6.4-3.5,10.5-8.6,12.4l9.8,14.2h-10.3
					l-8.6-12.7h-6.9v12.7h-8.8L353,197.1L353,197.1z M370.7,216.4c4.3,0,6.7-2.3,6.7-5.6v-0.1c0-3.8-2.6-5.7-6.9-5.7h-8.7v11.4
					H370.7L370.7,216.4z"/>
			</g>
			<g>
				<path class="st6" d="M163.3,252.8h4.6l14.6,21.7l14.6-21.7h4.6v39.8h-4.5v-32.3l-14.6,21.3h-0.2l-14.6-21.3v32.2h-4.4
					L163.3,252.8L163.3,252.8z"/>
				<path class="st6" d="M213.9,252.8h28.9v4.1h-24.4v13.6h21.8v4.1h-21.8v13.9h24.7v4.1h-29.2V252.8L213.9,252.8z M230.6,241.1
					l4.6,2.1l-6.4,6.1h-3.5L230.6,241.1L230.6,241.1z"/>
				<path class="st6" d="M253.2,252.8H267c12.6,0,21.2,8.6,21.2,19.8v0.1c0,11.2-8.7,19.9-21.2,19.9h-13.9V252.8L253.2,252.8z
					 M267,288.5c10.1,0,16.6-6.8,16.6-15.6v-0.1c0-8.8-6.5-15.8-16.6-15.8h-9.4v31.5H267z"/>
				<path class="st6" d="M298.1,252.8h4.5v39.8h-4.5V252.8L298.1,252.8z"/>
				<path class="st6" d="M330.1,252.6h4.2l18.2,40.1h-4.9l-4.7-10.5h-21.8l-4.7,10.5h-4.6L330.1,252.6L330.1,252.6z M341.2,278.1
					l-9.1-20.3l-9.1,20.3H341.2L341.2,278.1z"/>
				<path class="st6" d="M358.8,286.9l2.8-3.3c4.2,3.8,8.2,5.6,13.7,5.6s8.9-2.8,8.9-6.8v-0.1c0-3.7-2-5.8-10.4-7.6
					c-9.2-2-13.4-5-13.4-11.5v-0.1c0-6.3,5.5-10.9,13.1-10.9c5.8,0,10,1.6,14,4.9l-2.6,3.5c-3.7-3-7.4-4.3-11.5-4.3
					c-5.2,0-8.5,2.9-8.5,6.4v0.1c0,3.8,2.1,5.9,10.9,7.7c8.9,1.9,13,5.2,13,11.3v0.1c0,6.8-5.7,11.3-13.6,11.3
					C368.8,293.2,363.6,291.1,358.8,286.9L358.8,286.9z"/>
			</g>
		</g>
		<g>
			<path class="st6" d="M101.4,266.9L101.4,266.9c0-4.8,3.2-7.5,6.5-7.5c2.3,0,3.8,1.2,4.8,2.5v-7.7h3.2v19.8h-3.2v-2.4
				c-1,1.5-2.5,2.7-4.8,2.7C104.7,274.4,101.4,271.7,101.4,266.9L101.4,266.9z M112.8,266.9L112.8,266.9c0-2.8-1.9-4.6-4.1-4.6
				s-4.1,1.7-4.1,4.6v0.1c0,2.8,1.9,4.6,4.1,4.6S112.8,269.7,112.8,266.9z"/>
			<path class="st6" d="M119.8,267L119.8,267c0-4.1,2.8-7.5,6.9-7.5c4.5,0,6.7,3.6,6.7,7.7c0,0.3,0,0.6-0.1,0.9H123
				c0.3,2.3,2,3.6,4.1,3.6c1.6,0,2.7-0.6,3.8-1.7l1.9,1.7c-1.3,1.6-3.2,2.7-5.8,2.7C122.9,274.4,119.8,271.4,119.8,267L119.8,267z
				 M130.2,265.9c-0.2-2.1-1.4-3.8-3.6-3.8c-2,0-3.4,1.5-3.7,3.8H130.2z"/>
			<path class="st6" d="M136.1,272.2l1.4-2.2c1.5,1.2,3.2,1.8,4.6,1.8s2.2-0.6,2.2-1.5v-0.1c0-1.1-1.5-1.5-3.1-2
				c-2.1-0.6-4.4-1.5-4.4-4.2v0c0-2.7,2.2-4.4,5-4.4c1.8,0,3.7,0.6,5.2,1.6l-1.3,2.3c-1.4-0.8-2.8-1.4-4-1.4c-1.2,0-2,0.6-2,1.4v0.1
				c0,1,1.5,1.5,3.2,2c2.1,0.6,4.4,1.6,4.4,4.2v0.1c0,3-2.3,4.5-5.2,4.5C140.1,274.4,137.8,273.6,136.1,272.2L136.1,272.2z"/>
		</g>
	</g>
</g>
</svg>
