<?xml version="1.0" encoding="UTF-8"?><svg id="Calque_1" xmlns="http://www.w3.org/2000/svg" viewBox="0 0 482.71 482.71"><defs><style>.cls-1{fill:none;}.cls-2,.cls-3{fill:#898383;}.cls-4,.cls-5{fill:#494849;}.cls-5,.cls-3,.cls-6,.cls-7,.cls-8{fill-rule:evenodd;}.cls-6{fill:#cad400;}.cls-7{fill:#80ccd9;}.cls-8{fill:#f18641;}</style></defs><circle class="cls-1" cx="241.36" cy="241.36" r="241.36"/><g><path class="cls-7" d="m246.21,426.7c0-3.64,2.97-6.6,6.62-6.6s6.63,2.96,6.63,6.6-2.97,6.6-6.63,6.6-6.62-2.96-6.62-6.6Z"/><path class="cls-8" d="m435.15,218.23c0-3.65,2.97-6.6,6.62-6.6s6.63,2.95,6.63,6.6-2.97,6.59-6.63,6.59-6.62-2.95-6.62-6.59Z"/><path class="cls-6" d="m193.3,90.42c0-3.64,2.96-6.6,6.63-6.6s6.62,2.96,6.62,6.6-2.96,6.6-6.62,6.6-6.63-2.96-6.63-6.6Z"/><path class="cls-8" d="m61.01,350.29c0-2.55,2.09-4.63,4.65-4.63s4.65,2.07,4.65,4.63-2.08,4.63-4.65,4.63-4.65-2.07-4.65-4.63Z"/><path class="cls-8" d="m75.92,123.18c0-2.55,2.09-4.63,4.65-4.63s4.65,2.07,4.65,4.63-2.08,4.63-4.65,4.63-4.65-2.07-4.65-4.63Z"/><path class="cls-8" d="m288.21,398.32c0-2.56,2.08-4.63,4.65-4.63s4.65,2.07,4.65,4.63-2.08,4.63-4.65,4.63-4.65-2.08-4.65-4.63Z"/><path class="cls-8" d="m268.07,47.43c0-2.56,2.08-4.63,4.65-4.63s4.65,2.07,4.65,4.63-2.08,4.63-4.65,4.63-4.65-2.08-4.65-4.63Z"/><path class="cls-7" d="m420.45,255.2c0-2.56,2.08-4.63,4.65-4.63s4.65,2.07,4.65,4.63-2.08,4.63-4.65,4.63-4.65-2.07-4.65-4.63Z"/><path class="cls-6" d="m83.95,384.39c0-2.56,2.08-4.63,4.65-4.63s4.65,2.07,4.65,4.63-2.08,4.63-4.65,4.63-4.65-2.07-4.65-4.63Z"/><path class="cls-7" d="m81.97,166.11c0-3.66,2.98-6.6,6.63-6.6s6.63,2.95,6.63,6.6-2.97,6.6-6.63,6.6-6.63-2.96-6.63-6.6Z"/><path class="cls-7" d="m183.99,52.06c0-2.56,2.08-4.63,4.65-4.63s4.65,2.07,4.65,4.63-2.08,4.63-4.65,4.63-4.65-2.07-4.65-4.63Z"/><path class="cls-6" d="m186.67,144.98c0-3.64,2.97-6.6,6.63-6.6s6.63,2.96,6.63,6.6-2.98,6.6-6.63,6.6-6.63-2.95-6.63-6.6Z"/><path class="cls-6" d="m34.3,259.2c0-3.65,2.97-6.6,6.63-6.6s6.63,2.95,6.63,6.6-2.97,6.59-6.63,6.59-6.63-2.95-6.63-6.59Z"/><path class="cls-6" d="m430.5,300.59c0-3.64,2.97-6.6,6.63-6.6s6.63,2.96,6.63,6.6-2.97,6.6-6.63,6.6-6.63-2.96-6.63-6.6Z"/><path class="cls-3" d="m415.81,147.39c0-2.56,2.08-4.63,4.65-4.63s4.65,2.08,4.65,4.63-2.08,4.63-4.65,4.63-4.65-2.08-4.65-4.63Z"/><path class="cls-5" d="m235.61,116.58c0-3.64,2.97-6.6,6.63-6.6s6.63,2.95,6.63,6.6-2.96,6.6-6.63,6.6-6.63-2.95-6.63-6.6Z"/><path class="cls-3" d="m42.91,190.29c0-2.55,2.08-4.63,4.65-4.63s4.65,2.08,4.65,4.63-2.09,4.63-4.65,4.63-4.65-2.07-4.65-4.63Z"/><path class="cls-8" d="m193.29,433.31c0-3.65,2.98-6.6,6.63-6.6s6.63,2.96,6.63,6.6-2.96,6.6-6.63,6.6-6.63-2.96-6.63-6.6Z"/><path class="cls-5" d="m370.96,388.81c0-3.64,2.97-6.6,6.62-6.6s6.63,2.96,6.63,6.6-2.97,6.6-6.63,6.6-6.62-2.96-6.62-6.6Z"/><path class="cls-6" d="m320.4,135.89c-7.7,0-13.94-6.22-13.94-13.88,0-7.67,6.25-13.89,13.94-13.89,7.7,0,13.95,6.22,13.95,13.89,0,7.66-6.26,13.88-13.95,13.88Z"/><path class="cls-8" d="m138.73,159.07c-7.72,0-13.95-6.23-13.95-13.89,0-7.68,6.23-13.9,13.95-13.9,7.7,0,13.94,6.23,13.94,13.9,0,7.66-6.24,13.89-13.94,13.89Z"/><path class="cls-8" d="m112.63,365.58c-3.66,0-6.63-2.95-6.63-6.6,0-3.64,2.97-6.59,6.63-6.59,3.66,0,6.63,2.95,6.63,6.59,0,3.65-2.97,6.6-6.63,6.6Z"/><path class="cls-8" d="m362.85,361c-3.66,0-6.63-2.96-6.63-6.6,0-3.65,2.97-6.6,6.63-6.6,3.66,0,6.63,2.96,6.63,6.6,0,3.64-2.97,6.6-6.63,6.6Z"/><path class="cls-8" d="m357.95,159.07c-5.14,0-9.3-4.15-9.3-9.26,0-5.11,4.16-9.25,9.3-9.25,5.13,0,9.3,4.15,9.3,9.25,0,5.11-4.17,9.26-9.3,9.26Z"/><path class="cls-7" d="m261.44,94.85c-3.66,0-6.63-2.95-6.63-6.6s2.97-6.6,6.63-6.6c3.66,0,6.63,2.96,6.63,6.6s-2.96,6.6-6.63,6.6Z"/><path class="cls-7" d="m146.11,431.34c-2.57,0-4.65-2.08-4.65-4.63,0-2.56,2.08-4.63,4.65-4.63,2.57,0,4.65,2.07,4.65,4.63,0,2.55-2.08,4.63-4.65,4.63Z"/><path class="cls-8" d="m307.72,373.12c-5.13,0-9.3-4.16-9.3-9.26,0-5.12,4.17-9.27,9.3-9.27,5.13,0,9.3,4.15,9.3,9.27s-4.17,9.26-9.3,9.26Z"/><path class="cls-7" d="m80.57,294.27c-3.66,0-6.63-2.96-6.63-6.6,0-3.64,2.97-6.6,6.63-6.6,3.66,0,6.63,2.96,6.63,6.6,0,3.65-2.96,6.6-6.63,6.6Z"/><path class="cls-5" d="m251.54,366.32c-5.13,0-9.3-4.15-9.3-9.26,0-5.11,4.17-9.27,9.3-9.27,5.13,0,9.29,4.16,9.29,9.27,0,5.12-4.16,9.26-9.29,9.26Z"/><path class="cls-6" d="m334.35,431.34c-2.57,0-4.65-2.08-4.65-4.64,0-2.56,2.08-4.63,4.65-4.63,2.57,0,4.65,2.08,4.65,4.63,0,2.56-2.08,4.64-4.65,4.64Z"/><path class="cls-6" d="m375.61,100.22c-2.57,0-4.65-2.08-4.65-4.63s2.09-4.63,4.65-4.63c2.57,0,4.65,2.07,4.65,4.63,0,2.55-2.08,4.63-4.65,4.63Z"/><path class="cls-6" d="m303.07,80.9c-2.57,0-4.65-2.07-4.65-4.63,0-2.55,2.08-4.63,4.65-4.63,2.57,0,4.65,2.08,4.65,4.63,0,2.56-2.08,4.63-4.65,4.63Z"/><path class="cls-5" d="m150.76,109c-3.66,0-6.63-2.95-6.63-6.6s2.97-6.59,6.63-6.59,6.63,2.95,6.63,6.59c0,3.65-2.97,6.6-6.63,6.6Z"/><path class="cls-3" d="m265.84,159.07c-5.13,0-9.3-4.15-9.3-9.27s4.16-9.26,9.3-9.26c5.14,0,9.3,4.14,9.3,9.26,0,5.12-4.16,9.27-9.3,9.27Z"/><path class="cls-3" d="m172.12,404.22c-3.66,0-6.63-2.95-6.63-6.6,0-3.65,2.97-6.6,6.63-6.6,3.66,0,6.63,2.95,6.63,6.6,0,3.65-2.97,6.6-6.63,6.6Z"/><path class="cls-7" d="m215.3,398.29c-7.7,0-13.95-6.22-13.95-13.89,0-7.66,6.25-13.89,13.95-13.89,7.71,0,13.95,6.24,13.95,13.89,0,7.67-6.24,13.89-13.95,13.89Z"/><path class="cls-7" d="m420.46,354.59c-2.57,0-4.65-2.08-4.65-4.63,0-2.56,2.08-4.63,4.65-4.63,2.57,0,4.65,2.07,4.65,4.63,0,2.55-2.08,4.63-4.65,4.63Z"/><path class="cls-5" d="m387.01,133.54c-3.66,0-6.63-2.96-6.63-6.6,0-3.65,2.97-6.6,6.63-6.6,3.66,0,6.63,2.96,6.63,6.6,0,3.64-2.97,6.6-6.63,6.6Z"/><path class="cls-6" d="m153.52,359.55c0-5.11,4.17-9.26,9.3-9.26s9.3,4.15,9.3,9.26-4.16,9.26-9.3,9.26-9.3-4.15-9.3-9.26Z"/><g><path class="cls-2" d="m99.94,316.76v-.04c0-4.17,3.06-7.58,7.42-7.58,2.65,0,4.26.94,5.63,2.28l-1.63,1.9c-1.15-1.09-2.38-1.82-4.03-1.82-2.75,0-4.75,2.3-4.75,5.17v.04c0,2.87,1.99,5.21,4.75,5.21,1.77,0,2.9-.73,4.13-1.9l1.62,1.67c-1.49,1.59-3.14,2.6-5.83,2.6-4.19,0-7.32-3.33-7.32-7.54Z"/><path class="cls-2" d="m115.43,316.76v-.04c0-4.12,3.13-7.58,7.54-7.58s7.5,3.41,7.5,7.54v.04c0,4.12-3.12,7.58-7.54,7.58s-7.51-3.41-7.51-7.54Zm12.39,0v-.04c0-2.85-2.03-5.21-4.89-5.21s-4.85,2.32-4.85,5.17v.04c0,2.85,2.03,5.21,4.89,5.21s4.85-2.32,4.85-5.17Z"/><path class="cls-2" d="m132.39,309.4h2.74l3.43,10.86,3.54-10.91h2.13l3.54,10.91,3.43-10.86h2.65l-5.02,14.76h-2.18l-3.54-10.53-3.53,10.53h-2.18l-5.02-14.76Z"/><path class="cls-2" d="m155.76,316.76v-.04c0-4.12,3.13-7.58,7.54-7.58s7.5,3.41,7.5,7.54v.04c0,4.12-3.12,7.58-7.54,7.58s-7.5-3.41-7.5-7.54Zm12.39,0v-.04c0-2.85-2.03-5.21-4.89-5.21s-4.84,2.32-4.84,5.17v.04c0,2.85,2.03,5.21,4.89,5.21s4.85-2.32,4.85-5.17Z"/><path class="cls-2" d="m174.6,309.4h6.41c1.81,0,3.23.55,4.15,1.46.76.8,1.19,1.89,1.19,3.16v.04c0,2.41-1.42,3.85-3.43,4.44l3.88,5.55h-2.98l-3.53-5.11h-3.16v5.11h-2.53v-14.65Zm6.23,7.26c1.81,0,2.96-.96,2.96-2.45v-.04c0-1.57-1.11-2.43-2.98-2.43h-3.68v4.92h3.7Z"/><path class="cls-2" d="m190.2,309.4h2.53v7.37l6.84-7.37h3.1l-5.98,6.3,6.25,8.35h-3.06l-4.91-6.59-2.24,2.34v4.25h-2.53v-14.65Z"/><path class="cls-2" d="m205.98,309.4h2.53v14.65h-2.53v-14.65Z"/><path class="cls-2" d="m213.08,309.4h2.34l7.7,10.13v-10.13h2.49v14.65h-2.12l-7.93-10.42v10.42h-2.49v-14.65Z"/><path class="cls-2" d="m229.42,316.76v-.04c0-4.1,3.08-7.58,7.42-7.58,2.51,0,4.05.71,5.53,1.99l-1.6,1.95c-1.11-.96-2.2-1.57-4.03-1.57-2.65,0-4.66,2.36-4.66,5.17v.04c0,3.01,1.95,5.24,4.89,5.24,1.36,0,2.59-.44,3.47-1.11v-2.74h-3.68v-2.24h6.12v6.15c-1.41,1.23-3.45,2.28-6,2.28-4.5,0-7.46-3.27-7.46-7.54Z"/><path class="cls-2" d="m258.9,309.29h2.34l6.33,14.76h-2.67l-1.46-3.54h-6.8l-1.48,3.54h-2.59l6.33-14.76Zm3.62,8.94l-2.49-5.86-2.47,5.86h4.96Z"/><path class="cls-2" d="m269.58,321.91l1.53-1.84c1.37,1.22,2.75,1.91,4.54,1.91,1.56,0,2.54-.74,2.54-1.84v-.04c0-1.05-.57-1.61-3.24-2.24-3.06-.75-4.79-1.67-4.79-4.38v-.04c0-2.51,2.05-4.25,4.91-4.25,2.1,0,3.76.65,5.22,1.84l-1.35,1.95c-1.3-.98-2.59-1.51-3.91-1.51-1.48,0-2.34.78-2.34,1.74v.04c0,1.13.66,1.63,3.41,2.3,3.04.76,4.62,1.86,4.62,4.29v.04c0,2.74-2.12,4.37-5.14,4.37-2.2,0-4.27-.77-6-2.34Z"/><path class="cls-2" d="m283.26,321.91l1.53-1.84c1.37,1.22,2.75,1.91,4.54,1.91,1.56,0,2.54-.74,2.54-1.84v-.04c0-1.05-.57-1.61-3.24-2.24-3.06-.75-4.79-1.67-4.79-4.38v-.04c0-2.51,2.05-4.25,4.91-4.25,2.1,0,3.76.65,5.22,1.84l-1.35,1.95c-1.3-.98-2.59-1.51-3.91-1.51-1.48,0-2.34.78-2.34,1.74v.04c0,1.13.66,1.63,3.41,2.3,3.04.76,4.62,1.86,4.62,4.29v.04c0,2.74-2.12,4.37-5.14,4.37-2.2,0-4.27-.77-6-2.34Z"/><path class="cls-2" d="m297.48,316.76v-.04c0-4.12,3.13-7.58,7.54-7.58s7.5,3.41,7.5,7.54v.04c0,4.12-3.12,7.58-7.54,7.58s-7.5-3.41-7.5-7.54Zm12.39,0v-.04c0-2.85-2.03-5.21-4.89-5.21s-4.84,2.32-4.84,5.17v.04c0,2.85,2.03,5.21,4.89,5.21s4.85-2.32,4.85-5.17Z"/><path class="cls-2" d="m315.68,316.76v-.04c0-4.17,3.06-7.58,7.42-7.58,2.65,0,4.26.94,5.63,2.28l-1.63,1.9c-1.15-1.09-2.38-1.82-4.03-1.82-2.75,0-4.75,2.3-4.75,5.17v.04c0,2.87,1.99,5.21,4.75,5.21,1.77,0,2.9-.73,4.13-1.9l1.62,1.67c-1.49,1.59-3.14,2.6-5.83,2.6-4.19,0-7.32-3.33-7.32-7.54Z"/><path class="cls-2" d="m332.37,309.4h2.53v14.65h-2.53v-14.65Z"/><path class="cls-2" d="m344.57,309.29h2.34l6.33,14.76h-2.67l-1.46-3.54h-6.8l-1.48,3.54h-2.59l6.33-14.76Zm3.62,8.94l-2.49-5.86-2.47,5.86h4.96Z"/><path class="cls-2" d="m358.13,311.78h-4.56v-2.39h11.67v2.39h-4.56v12.27h-2.55v-12.27Z"/><path class="cls-2" d="m368.79,309.4h2.53v14.65h-2.53v-14.65Z"/><path class="cls-2" d="m375.89,309.4h10.71v2.34h-8.18v4h7.25v2.34h-7.25v5.97h-2.53v-14.65Z"/></g><g><g><g><path class="cls-4" d="m101.37,197.09h8.79v31.86h19.92v7.96h-28.71v-39.82Z"/><path class="cls-4" d="m131.39,211.83c3.94-.4,5.88-2.39,5.59-5.63h-3.54v-9.1h9.25v7.68c0,7.51-3.77,10.52-10.56,10.64l-.74-3.59Z"/><path class="cls-4" d="m158.73,196.81h8.11l17.13,40.11h-9.19l-3.65-8.93h-16.9l-3.65,8.93h-8.96l17.13-40.11Zm9.25,23.44l-5.31-12.91-5.31,12.91h10.62Z"/><path class="cls-4" d="m194.28,205.17h-12.16v-8.08h33.11v8.08h-12.16v31.75h-8.79v-31.75Z"/><path class="cls-4" d="m221.97,197.09h30.14v7.79h-21.41v8.08h18.84v7.79h-18.84v8.36h21.69v7.79h-30.42v-39.82Z"/><path class="cls-4" d="m260.21,197.09h8.79v31.86h19.92v7.96h-28.71v-39.82Z"/><path class="cls-4" d="m295.93,197.09h8.8v39.82h-8.8v-39.82Z"/><path class="cls-4" d="m314.72,197.09h30.14v7.79h-21.41v8.08h18.84v7.79h-18.84v8.36h21.69v7.79h-30.42v-39.82Z"/><path class="cls-4" d="m352.96,197.09h18.27c5.08,0,9.02,1.42,11.64,4.04,2.23,2.22,3.43,5.35,3.43,9.1v.11c0,6.43-3.49,10.47-8.57,12.35l9.76,14.22h-10.28l-8.56-12.74h-6.91v12.74h-8.79v-39.82Zm17.7,19.34c4.28,0,6.74-2.28,6.74-5.63v-.11c0-3.76-2.62-5.69-6.91-5.69h-8.73v11.43h8.91Z"/></g><g><path class="cls-2" d="m163.31,252.83h4.57l14.56,21.73,14.56-21.73h4.57v39.82h-4.51v-32.26l-14.56,21.33h-.22l-14.56-21.28v32.2h-4.4v-39.82Z"/><path class="cls-2" d="m213.88,252.83h28.89v4.1h-24.38v13.6h21.81v4.1h-21.81v13.94h24.66v4.1h-29.17v-39.82Zm16.73-11.78l4.57,2.11-6.45,6.14h-3.54l5.43-8.25Z"/><path class="cls-2" d="m253.16,252.83h13.87c12.56,0,21.24,8.59,21.24,19.8v.11c0,11.21-8.68,19.91-21.24,19.91h-13.87v-39.82Zm13.87,35.67c10.1,0,16.56-6.83,16.56-15.65v-.11c0-8.82-6.45-15.76-16.56-15.76h-9.36v31.52h9.36Z"/><path class="cls-2" d="m298.09,252.83h4.51v39.82h-4.51v-39.82Z"/><path class="cls-2" d="m330.11,252.55h4.22l18.21,40.11h-4.86l-4.68-10.53h-21.75l-4.74,10.53h-4.62l18.21-40.11Zm11.13,25.54l-9.07-20.31-9.13,20.31h18.21Z"/><path class="cls-2" d="m358.82,286.85l2.8-3.3c4.17,3.76,8.16,5.63,13.7,5.63s8.91-2.84,8.91-6.77v-.11c0-3.7-2-5.8-10.39-7.56-9.19-1.99-13.42-4.95-13.42-11.49v-.11c0-6.26,5.54-10.87,13.13-10.87,5.82,0,9.99,1.65,14.04,4.89l-2.62,3.47c-3.71-3.01-7.42-4.32-11.53-4.32-5.2,0-8.51,2.85-8.51,6.43v.11c0,3.76,2.06,5.86,10.85,7.74,8.91,1.93,13.01,5.18,13.01,11.26v.11c0,6.83-5.71,11.26-13.64,11.26-6.34,0-11.53-2.1-16.33-6.37Z"/></g></g><g><path class="cls-2" d="m101.45,266.94v-.06c0-4.75,3.17-7.43,6.53-7.43,2.32,0,3.78,1.19,4.8,2.52v-7.7h3.23v19.81h-3.23v-2.39c-1.04,1.49-2.51,2.69-4.8,2.69-3.31,0-6.53-2.69-6.53-7.43Zm11.38,0v-.06c0-2.77-1.92-4.58-4.08-4.58s-4.05,1.74-4.05,4.58v.06c0,2.77,1.87,4.58,4.05,4.58s4.08-1.84,4.08-4.58Z"/><path class="cls-2" d="m119.8,266.96v-.05c0-4.1,2.85-7.46,6.88-7.46,4.47,0,6.74,3.58,6.74,7.71,0,.3-.03.6-.06.92h-10.34c.35,2.34,1.97,3.64,4.05,3.64,1.58,0,2.69-.6,3.81-1.71l1.9,1.71c-1.33,1.63-3.18,2.69-5.76,2.69-4.08,0-7.22-3.01-7.22-7.44Zm10.42-1.06c-.21-2.12-1.44-3.77-3.57-3.77-1.97,0-3.36,1.55-3.65,3.77h7.22Z"/><path class="cls-2" d="m136.08,272.2l1.44-2.22c1.52,1.17,3.17,1.76,4.61,1.76s2.19-.6,2.19-1.54v-.06c0-1.11-1.49-1.49-3.14-2.01-2.08-.6-4.4-1.47-4.4-4.21v-.05c0-2.71,2.21-4.37,5.01-4.37,1.76,0,3.68.63,5.17,1.63l-1.28,2.34c-1.36-.84-2.8-1.36-3.98-1.36-1.25,0-1.97.6-1.97,1.44v.06c0,1.03,1.52,1.46,3.18,2.01,2.05.65,4.37,1.6,4.37,4.18v.06c0,3.01-2.29,4.5-5.22,4.5-2,0-4.21-.73-5.97-2.14Z"/></g></g></g></svg>