<?xml version="1.0" encoding="UTF-8"?><svg id="Ss_Baseline" xmlns="http://www.w3.org/2000/svg" viewBox="0 0 482.71 482.71"><defs><style>.cls-1{fill:#fff;}.cls-2,.cls-3{fill:#898383;}.cls-4,.cls-5{fill:#494849;}.cls-5,.cls-3,.cls-6,.cls-7,.cls-8{fill-rule:evenodd;}.cls-6{fill:#cad400;}.cls-7{fill:#80ccd9;}.cls-8{fill:#f18641;}</style></defs><circle class="cls-1" cx="241.36" cy="241.36" r="241.36"/><path class="cls-7" d="m246.21,426.7c0-3.64,2.97-6.6,6.62-6.6s6.63,2.96,6.63,6.6-2.97,6.6-6.63,6.6-6.62-2.96-6.62-6.6Z"/><path class="cls-6" d="m193.3,90.42c0-3.64,2.96-6.6,6.63-6.6s6.62,2.96,6.62,6.6-2.96,6.6-6.62,6.6-6.63-2.96-6.63-6.6Z"/><path class="cls-8" d="m61.01,350.29c0-2.55,2.09-4.63,4.65-4.63s4.65,2.07,4.65,4.63-2.08,4.63-4.65,4.63-4.65-2.07-4.65-4.63Z"/><path class="cls-8" d="m75.92,123.18c0-2.55,2.09-4.63,4.65-4.63s4.65,2.07,4.65,4.63-2.08,4.63-4.65,4.63-4.65-2.07-4.65-4.63Z"/><path class="cls-8" d="m288.21,398.32c0-2.56,2.08-4.63,4.65-4.63s4.65,2.07,4.65,4.63-2.08,4.63-4.65,4.63-4.65-2.08-4.65-4.63Z"/><path class="cls-8" d="m268.07,47.43c0-2.56,2.08-4.63,4.65-4.63s4.65,2.07,4.65,4.63-2.08,4.63-4.65,4.63-4.65-2.08-4.65-4.63Z"/><path class="cls-6" d="m83.95,384.39c0-2.56,2.08-4.63,4.65-4.63s4.65,2.07,4.65,4.63-2.08,4.63-4.65,4.63-4.65-2.07-4.65-4.63Z"/><path class="cls-7" d="m183.99,52.06c0-2.56,2.08-4.63,4.65-4.63s4.65,2.07,4.65,4.63-2.08,4.63-4.65,4.63-4.65-2.07-4.65-4.63Z"/><path class="cls-6" d="m186.67,144.98c0-3.64,2.97-6.6,6.63-6.6s6.63,2.96,6.63,6.6-2.98,6.6-6.63,6.6-6.63-2.95-6.63-6.6Z"/><path class="cls-3" d="m415.81,147.39c0-2.56,2.08-4.63,4.65-4.63s4.65,2.08,4.65,4.63-2.08,4.63-4.65,4.63-4.65-2.08-4.65-4.63Z"/><path class="cls-5" d="m235.61,116.58c0-3.64,2.97-6.6,6.63-6.6s6.63,2.95,6.63,6.6-2.96,6.6-6.63,6.6-6.63-2.95-6.63-6.6Z"/><path class="cls-8" d="m193.29,433.31c0-3.65,2.98-6.6,6.63-6.6s6.63,2.96,6.63,6.6-2.96,6.6-6.63,6.6-6.63-2.96-6.63-6.6Z"/><path class="cls-5" d="m370.96,388.81c0-3.64,2.97-6.6,6.62-6.6s6.63,2.96,6.63,6.6-2.97,6.6-6.63,6.6-6.62-2.96-6.62-6.6Z"/><path class="cls-6" d="m320.4,135.89c-7.7,0-13.94-6.22-13.94-13.88,0-7.67,6.25-13.89,13.94-13.89,7.7,0,13.95,6.22,13.95,13.89,0,7.66-6.26,13.88-13.95,13.88Z"/><path class="cls-8" d="m126.47,150.08c-7.72,0-13.95-6.23-13.95-13.89,0-7.68,6.23-13.9,13.95-13.9,7.7,0,13.94,6.23,13.94,13.9,0,7.66-6.24,13.89-13.94,13.89Z"/><path class="cls-8" d="m112.63,365.58c-3.66,0-6.63-2.95-6.63-6.6,0-3.64,2.97-6.59,6.63-6.59,3.66,0,6.63,2.95,6.63,6.59,0,3.65-2.97,6.6-6.63,6.6Z"/><path class="cls-8" d="m362.85,361c-3.66,0-6.63-2.96-6.63-6.6,0-3.65,2.97-6.6,6.63-6.6,3.66,0,6.63,2.96,6.63,6.6,0,3.64-2.97,6.6-6.63,6.6Z"/><path class="cls-8" d="m357.95,159.07c-5.14,0-9.3-4.15-9.3-9.26,0-5.11,4.16-9.25,9.3-9.25,5.13,0,9.3,4.15,9.3,9.25,0,5.11-4.17,9.26-9.3,9.26Z"/><path class="cls-7" d="m261.44,94.85c-3.66,0-6.63-2.95-6.63-6.6s2.97-6.6,6.63-6.6c3.66,0,6.63,2.96,6.63,6.6s-2.96,6.6-6.63,6.6Z"/><path class="cls-7" d="m146.11,431.34c-2.57,0-4.65-2.08-4.65-4.63,0-2.56,2.08-4.63,4.65-4.63,2.57,0,4.65,2.07,4.65,4.63,0,2.55-2.08,4.63-4.65,4.63Z"/><path class="cls-8" d="m307.72,373.12c-5.13,0-9.3-4.16-9.3-9.26,0-5.12,4.17-9.27,9.3-9.27,5.13,0,9.3,4.15,9.3,9.27s-4.17,9.26-9.3,9.26Z"/><path class="cls-5" d="m251.54,366.32c-5.13,0-9.3-4.15-9.3-9.26,0-5.11,4.17-9.27,9.3-9.27,5.13,0,9.29,4.16,9.29,9.27,0,5.12-4.16,9.26-9.29,9.26Z"/><path class="cls-6" d="m334.35,431.34c-2.57,0-4.65-2.08-4.65-4.64,0-2.56,2.08-4.63,4.65-4.63,2.57,0,4.65,2.08,4.65,4.63,0,2.56-2.08,4.64-4.65,4.64Z"/><path class="cls-6" d="m375.61,100.22c-2.57,0-4.65-2.08-4.65-4.63s2.09-4.63,4.65-4.63c2.57,0,4.65,2.07,4.65,4.63,0,2.55-2.08,4.63-4.65,4.63Z"/><path class="cls-6" d="m303.07,80.9c-2.57,0-4.65-2.07-4.65-4.63,0-2.55,2.08-4.63,4.65-4.63,2.57,0,4.65,2.08,4.65,4.63,0,2.56-2.08,4.63-4.65,4.63Z"/><path class="cls-5" d="m150.76,109c-3.66,0-6.63-2.95-6.63-6.6s2.97-6.59,6.63-6.59,6.63,2.95,6.63,6.59c0,3.65-2.97,6.6-6.63,6.6Z"/><path class="cls-3" d="m272.89,151.9c-5.13,0-9.3-4.15-9.3-9.27s4.16-9.26,9.3-9.26c5.14,0,9.3,4.14,9.3,9.26,0,5.12-4.16,9.27-9.3,9.27Z"/><path class="cls-3" d="m172.12,404.22c-3.66,0-6.63-2.95-6.63-6.6,0-3.65,2.97-6.6,6.63-6.6,3.66,0,6.63,2.95,6.63,6.6,0,3.65-2.97,6.6-6.63,6.6Z"/><path class="cls-7" d="m215.3,398.29c-7.7,0-13.95-6.22-13.95-13.89,0-7.66,6.25-13.89,13.95-13.89,7.71,0,13.95,6.24,13.95,13.89,0,7.67-6.24,13.89-13.95,13.89Z"/><path class="cls-7" d="m420.46,354.59c-2.57,0-4.65-2.08-4.65-4.63,0-2.56,2.08-4.63,4.65-4.63,2.57,0,4.65,2.07,4.65,4.63,0,2.55-2.08,4.63-4.65,4.63Z"/><path class="cls-5" d="m387.01,133.54c-3.66,0-6.63-2.96-6.63-6.6,0-3.65,2.97-6.6,6.63-6.6,3.66,0,6.63,2.96,6.63,6.6,0,3.64-2.97,6.6-6.63,6.6Z"/><path class="cls-6" d="m153.52,359.55c0-5.11,4.17-9.26,9.3-9.26s9.3,4.15,9.3,9.26-4.16,9.26-9.3,9.26-9.3-4.15-9.3-9.26Z"/><g><g><g><path class="cls-4" d="m35.81,178.5h12.8v46.39h29.01v11.6h-41.81v-57.99Z"/><path class="cls-4" d="m79.53,199.95c5.74-.58,8.56-3.48,8.15-8.2h-5.15v-13.25h13.47v11.19c0,10.93-5.49,15.32-15.38,15.49l-1.08-5.22Z"/><path class="cls-4" d="m119.34,178.09h11.81l24.94,58.4h-13.39l-5.32-13.01h-24.6l-5.32,13.01h-13.05l24.94-58.4Zm13.47,34.13l-7.73-18.81-7.73,18.81h15.46Z"/><path class="cls-4" d="m171.11,190.26h-17.7v-11.76h48.21v11.76h-17.71v46.23h-12.8v-46.23Z"/><path class="cls-4" d="m211.43,178.5h43.89v11.35h-31.17v11.76h27.43v11.35h-27.43v12.18h31.59v11.35h-44.3v-57.99Z"/><path class="cls-4" d="m267.11,178.5h12.8v46.39h29.01v11.6h-41.81v-57.99Z"/><path class="cls-4" d="m319.14,178.5h12.81v57.99h-12.81v-57.99Z"/><path class="cls-4" d="m346.48,178.5h43.89v11.35h-31.17v11.76h27.43v11.35h-27.43v12.18h31.59v11.35h-44.3v-57.99Z"/><path class="cls-4" d="m402.18,178.5h26.6c7.4,0,13.13,2.07,16.95,5.88,3.24,3.23,4.99,7.79,4.99,13.25v.16c0,9.36-5.08,15.25-12.47,17.98l14.22,20.71h-14.97l-12.46-18.56h-10.06v18.56h-12.8v-57.99Zm25.77,28.17c6.23,0,9.81-3.31,9.81-8.2v-.16c0-5.47-3.82-8.29-10.06-8.29h-12.72v16.65h12.97Z"/></g><g><path class="cls-2" d="m126.02,259.67h6.65l21.2,31.65,21.2-31.65h6.65v57.99h-6.57v-46.97l-21.2,31.07h-.33l-21.2-30.99v46.89h-6.4v-57.99Z"/><path class="cls-2" d="m199.66,259.67h42.06v5.97h-35.5v19.8h31.76v5.97h-31.76v20.3h35.91v5.97h-42.48v-57.99Zm24.36-17.15l6.65,3.07-9.39,8.95h-5.16l7.9-12.01Z"/><path class="cls-2" d="m256.85,259.67h20.2c18.29,0,30.93,12.51,30.93,28.83v.17c0,16.32-12.64,28.99-30.93,28.99h-20.2v-57.99Zm20.2,51.94c14.71,0,24.11-9.94,24.11-22.78v-.16c0-12.84-9.39-22.95-24.11-22.95h-13.63v45.9h13.63Z"/><path class="cls-2" d="m322.27,259.67h6.57v57.99h-6.57v-57.99Z"/><path class="cls-2" d="m368.89,259.26h6.15l26.52,58.4h-7.07l-6.81-15.33h-31.68l-6.9,15.33h-6.73l26.52-58.4Zm16.2,37.19l-13.21-29.58-13.3,29.58h26.51Z"/><path class="cls-2" d="m410.7,309.21l4.07-4.81c6.07,5.47,11.89,8.2,19.94,8.2s12.97-4.14,12.97-9.86v-.17c0-5.38-2.91-8.45-15.13-11.01-13.39-2.9-19.54-7.21-19.54-16.74v-.16c0-9.11,8.07-15.82,19.12-15.82,8.48,0,14.55,2.4,20.45,7.12l-3.82,5.05c-5.4-4.39-10.81-6.3-16.79-6.3-7.57,0-12.39,4.15-12.39,9.36v.17c0,5.47,3,8.53,15.8,11.27,12.97,2.81,18.95,7.54,18.95,16.4v.16c0,9.94-8.31,16.4-19.86,16.4-9.23,0-16.79-3.06-23.77-9.28Z"/></g></g><g><path class="cls-2" d="m35.93,280.21v-.08c0-6.91,4.62-10.83,9.5-10.83,3.38,0,5.51,1.74,6.99,3.67v-11.22h4.7v28.84h-4.7v-3.48c-1.52,2.17-3.65,3.91-6.99,3.91-4.81,0-9.5-3.91-9.5-10.83Zm16.57,0v-.08c0-4.03-2.79-6.67-5.93-6.67s-5.9,2.53-5.9,6.67v.08c0,4.03,2.72,6.67,5.9,6.67s5.93-2.68,5.93-6.67Z"/><path class="cls-2" d="m62.66,280.24v-.08c0-5.97,4.15-10.87,10.02-10.87,6.51,0,9.82,5.22,9.82,11.22,0,.43-.05.87-.08,1.34h-15.06c.51,3.4,2.87,5.3,5.9,5.3,2.29,0,3.92-.87,5.55-2.49l2.76,2.49c-1.94,2.37-4.62,3.91-8.39,3.91-5.93,0-10.51-4.39-10.51-10.83Zm15.17-1.54c-.31-3.08-2.1-5.49-5.2-5.49-2.87,0-4.89,2.25-5.31,5.49h10.51Z"/><path class="cls-2" d="m86.37,287.87l2.1-3.24c2.21,1.7,4.62,2.57,6.71,2.57s3.19-.87,3.19-2.25v-.08c0-1.62-2.18-2.17-4.58-2.92-3.03-.87-6.4-2.14-6.4-6.13v-.08c0-3.95,3.22-6.36,7.29-6.36,2.57,0,5.36.91,7.53,2.37l-1.86,3.4c-1.98-1.23-4.08-1.98-5.79-1.98-1.82,0-2.87.87-2.87,2.1v.08c0,1.5,2.21,2.13,4.62,2.92,2.99.95,6.36,2.33,6.36,6.08v.08c0,4.39-3.33,6.56-7.61,6.56-2.91,0-6.13-1.07-8.69-3.12Z"/></g></g></svg>